# xmcd
#
# Track frame offsets:
#	150
#	16252
#	31525
#	45022
#	59977
#	74932
#	89287
#	100067
#	114832
#	128902
#	142567
#	156270
#	170460
#	183917
#	192472
#	210482
#	230907
#	243800
#	256765
#	269532
#	283882
#	296527
#
# Disc length: 4269
#
# Revision: 1
# Processed by: cddbd v1.5.1PL0 Copyright (c) Steve Scherf et al.
# Submitted via: CDex 1.50beta9
# Normalized: r0:TDELIM( - )
#
DISCID=3810ab16
DTITLE=Glenn Miller - The Best Of Big Band Glenn Miller and Friends
DYEAR=2000
DGENRE=Jazz
TTITLE0=Glenn Miller - In The Mood
TTITLE1=Glenn Miller - Chattanooga Choo Choo
TTITLE2=The American Patrol Orchestra - Cherry Pink And Apple Blossom White
TTITLE3=The Memphis Belle Orchestra - Flying Home
TTITLE4=The Herb Miller Orchestra - Tuxedo Junction
TTITLE5=Cab Calloway - Minnie The Moocher
TTITLE6=Tommy Dorsey - The Sheik of Araby
TTITLE7=Stan Kenton - Lullaby of Birdland
TTITLE8=Woody Herman - Blue Prelude
TTITLE9=Duke Ellington - Take The A Train
TTITLE10=Duke Ellington - Caravan
TTITLE11=Count Basie - Jumpin' At The Woodside
TTITLE12=Count Basie - My Heart Belongs To Daddy
TTITLE13=Harry James - Flight Of The Bumble Bee
TTITLE14=Artie Shaw - Donkey Serenade
TTITLE15=Lionel Hampton - I Only Have Eyes For You
TTITLE16=Lionel Hampton - Rhythm, Rhythm, I Got Rhythm
TTITLE17=Louis Armstrong Orchestra - Mahogany Hill Stomp
TTITLE18=Louis Armstrong Orchestra - Swing That Music
TTITLE19=Jimmy Dorsey - Stompin At The Savoy
TTITLE20=Woody Herman - Swing Low Sweet Clarinet
TTITLE21=Woody Herman - Northwest Passage
EXTD=YEAR: 2000
EXTT0=
EXTT1=
EXTT2=
EXTT3=
EXTT4=
EXTT5=
EXTT6=
EXTT7=
EXTT8=
EXTT9=
EXTT10=
EXTT11=
EXTT12=
EXTT13=
EXTT14=
EXTT15=
EXTT16=
EXTT17=
EXTT18=
EXTT19=
EXTT20=
EXTT21=
PLAYORDER=
